<?xml version="1.0" encoding="UTF-8"?>
<!DOCTYPE svg PUBLIC "-//W3C//DTD SVG 1.1//EN" "http://www.w3.org/Graphics/SVG/1.1/DTD/svg11.dtd">
<!-- Creator: CorelDRAW 2019 (64-Bit) -->
<svg xmlns="http://www.w3.org/2000/svg" xml:space="preserve" width="64" height="64" version="1.1" style="shape-rendering:geometricPrecision; text-rendering:geometricPrecision; image-rendering:optimizeQuality; fill-rule:evenodd; clip-rule:evenodd"
viewBox="4200 10700 3950 3700"
 xmlns:xlink="http://www.w3.org/1999/xlink">
 <defs>
  <style type="text/css">
   <![CDATA[
    .fil2 {fill:black}
    .fil1 {fill:#D9F761}
    .fil0 {fill:#F7F4EF}
   ]]>
  </style>
 </defs>
 <g id="Capa_x0020_1">
  <metadata id="CorelCorpID_0Corel-Layer"/>
  <path class="fil0" d="M18911.68 12028.78c-193.9,21.08 -232.51,65.2 -448.89,0.65 -127.36,-38 -244.4,-128.14 -316.84,-207.79 -76.59,-84.23 -137.93,-215.81 -158.06,-366.29 -29.83,-222.98 51.57,-270.96 85.05,-432.5 -197.49,-58.27 -311.2,-140.72 -563.93,-169.88 -225.39,-26.01 -436.76,-8.38 -645.98,50.65 -410.15,115.73 -704.3,336.69 -887.52,586.84 -229.99,314.01 -380.21,675.52 -366.49,1097.37 40.54,1246.7 1384.42,2092.56 2525.71,1441.09 287.94,-164.37 557.85,-437.96 703.86,-770.2 152.03,-345.93 238.7,-906.03 73.09,-1229.94zm-780.79 578.54l-17.27 -171.3 -49.53 -159.56 -78.37 -144.38 -103.79 -125.8 -125.8 -103.79 -144.38 -78.37 -159.56 -49.53 -171.3 -17.27 -171.3 17.27 -159.56 49.53 -144.38 78.37 -125.8 103.79 -103.79 125.8 -78.37 144.38 -49.53 159.56 -17.27 171.3 17.27 171.3 49.53 159.56 78.37 144.38 103.79 125.8 125.8 103.79 144.38 78.37 159.56 49.53 171.3 17.27 171.3 -17.27 159.56 -49.53 144.38 -78.37 125.8 -103.79 103.79 -125.8 78.37 -144.38 49.53 -159.56 17.27 -171.3z"/>
  <path class="fil0" d="M5254.05 10453.01l994.4 0.39 0.66 -1122.62c275.94,-1.95 1352.38,15.77 1525.41,-11.74 397.04,-63.13 672.82,-458.44 603.35,-936.97l-2127.71 -0.4c-0.78,-257.95 -31.87,-452.3 205.09,-510.81 122.31,-30.2 557.38,-11.47 712.65,-11.28 487.2,0.61 974.48,0.04 1461.66,0.06l-0.34 -959.11c-572.24,-9.37 -1150.74,-2.15 -1723.97,-1.83 -714.67,0.42 -952.99,-28.17 -1357.61,385.06 -357.49,365.1 -295.31,843.75 -295.19,1430.38 0.12,566.93 -21.54,1177.4 1.6,1738.87z"/>
  <path class="fil1" d="M5687.38 12610.19c-160.83,79.87 -236.58,44.97 -477.72,244.94l-368.39 361.58c-120.66,118.21 -230.53,211.69 -320.19,409.8 -93.65,207.03 -116.83,384.32 -118,637.65l970.37 -1.66c38.21,-326.59 491.28,-919.55 832.26,-917.89 213.52,1.03 411.01,190.78 527.45,342.4 70.32,91.56 120.54,141.22 184.34,253.17 109.06,191.41 96.36,252.82 133.65,320.17l948.84 1.83c-0.49,-223.98 -21.55,-441.11 -108.34,-623.89 -108.39,-228.28 -152.08,-233.96 -322.98,-407.5 -188.77,-191.65 -345.03,-390.93 -581.44,-513.5 -86.74,-44.99 -175.96,-67.72 -258.81,-107.1 84.95,-49.38 307.79,-93.27 477.02,-254.33 200.16,-190.51 570.13,-536.39 680.57,-778.81 89.55,-196.58 116.08,-377.92 112.91,-615.31l-947.77 -1.12c-26.62,43.93 -36.29,114.71 -55.32,164.45 -99.06,259.07 -484.27,751.13 -790.93,757.68 -304.53,6.5 -682.35,-498.14 -786.52,-747.56 -22.11,-52.98 -32.34,-133.12 -59.89,-174.93l-953.55 1.05c-7.19,499.3 136.69,725.94 437.62,1026.49 196.39,196.13 332.27,375.82 581.06,514 87.69,48.71 192.05,69.7 263.76,108.39z"/>
  <path class="fil0" d="M18283.91 9503.52c-127.76,-17.04 -1030.65,-5.62 -1237.27,-5.72 -406.24,-0.21 -803.2,33.97 -1003.31,-232.58 -115.08,-153.29 -118.87,-271.14 -118.51,-492.7l0.33 -1874.52 -1050.48 1.69c6.39,659 2.41,1319.23 0.5,1974.96 -2.02,689.85 195.18,1107.66 611.1,1371.06 435.62,275.86 1190.13,201.66 1764.65,201.63l993.12 1.2c62.57,-10.27 40.9,0.68 39.75,-202.24l0.12 -742.78z"/>
  <path class="fil0" d="M11047.94 7109.04l0.65 1882.36c-0.34,455.94 142.95,916.39 501.46,1177.53 485.76,353.81 991.16,279.46 1644.32,278.79l1265.03 -1.36 4.29 -945.72 -1590.35 -2.38c-533.72,-0.51 -782,-184.54 -781.25,-725.74l-0.69 -1873.71 -1041.81 2.22 -1.65 208.01z"/>
  <path class="fil0" d="M8443.26 11758.58c90.46,18.66 2853.2,20.82 3069.98,3.77l1.29 -798.03c-300.47,-18.97 -656.14,-1.34 -961.31,-1.41 -325.79,-0.07 -651.92,-1.79 -977.65,-0.21 -310.41,1.5 -618.27,-42.32 -852.59,109.05 -224.52,145.04 -270.72,349.96 -279.72,686.83z"/>
  <path class="fil0" d="M11514.1 14259.16l0.55 -801.22 -3067.65 -1.74c-26.97,362.79 78.5,545.8 276.15,692.28 212.66,157.59 555.23,115.3 852.42,114.82 347.88,-0.57 1718.24,18.02 1938.53,-4.14z"/>
  <path class="fil0" d="M8444.52 12999.73c103.16,34 1245.2,11.97 1452.06,12.11 485.59,0.36 993.45,14.15 1476.4,-1.43l-2.55 -802.49 -2922.83 0.02 -3.08 791.79z"/>
  <polygon class="fil0" points="9303.99,10446.05 10300.41,10453.03 10301.01,8105.9 9305.63,8102.44 "/>
  <path class="fil2" d="M16986.58 13401.87c33.08,12.71 67.21,23.34 102.26,31.74l-102.26 -31.74zm140.92 39.99c44.49,8.37 90.33,13.12 137.29,13.84l-137.29 -13.84zm172.14 13.57c41.04,-1.11 82.05,-5.19 122.48,-12.35l-122.48 12.35zm204.87 -31.62c10.05,-2.91 20.04,-6.01 29.98,-9.31l-29.98 9.31z"/>
  <path class="fil0" d="M9662.67 6650.41c-282.35,67.37 -532.91,350.19 -448.92,716.99 66.06,288.56 371.54,534.12 730.76,446.1 283.67,-69.51 524.88,-356.89 447.34,-716.37 -60.32,-279.67 -371.68,-532.04 -729.18,-446.72z"/>
  <path class="fil0" d="M12927.63 12463.42c298.33,-4.79 597.05,-0.02 894.2,-1.12 302.86,-1.12 547.54,-11.34 544.4,-348.26 -1.17,-125.81 -44.12,-230.1 -147.63,-294.35 -109.87,-68.19 -248.35,-52.63 -396.77,-53.11 -296.59,-0.97 -593.24,1.44 -889.76,1.27l-4.44 695.57zm-931.95 1799.93l931.22 -0.55 0.64 -1022.31 654.22 1.35c67.44,83.41 119.66,169.22 187.03,253.16l578.34 766.47 1083.01 1.19c-66.1,-133.03 -684.92,-892.37 -831.97,-1112.56 43.28,-44.48 276.62,-102.13 447.47,-323.1 413.33,-534.6 302.2,-1281.54 -179.09,-1641.14 -373.85,-279.34 -804.85,-222.92 -1321.98,-224.09 -515.26,-1.15 -1033.38,6.24 -1548.21,-1.46l-0.68 3303.04z"/>
  <path class="fil1" d="M18565.42 10926.2c-659.5,145.89 -463.18,1129.09 203.88,999.4 241.65,-47 462.2,-302.52 395.64,-600.71 -54.48,-244.06 -289.47,-467.28 -599.52,-398.69z"/>
 </g>
</svg>
